<svg data-v-423bf9ae="" xmlns="http://www.w3.org/2000/svg" viewBox="0 0 353 90" class="iconLeftSlogan"><!----><!----><!----><g data-v-423bf9ae="" id="d20c4a3d-5e2d-4145-9453-ec31c48d7678" fill="#1C8B51" transform="matrix(5.644402573287807,0,0,5.644402573287807,107.23424084013809,-4.76837158203125e-7)"><path d="M3.22 5.03L3.22 1.47L6.64 1.47L7.08 3.21L7.78 3.07L7.78 0.70L0.63 0.70L0.49 1.33L1.82 1.60L1.82 9.60L0.49 10.01L0.49 10.50L4.68 10.50L4.82 9.87L3.22 9.60L3.22 5.80L5.59 5.87L6.06 6.79L6.45 6.65L6.45 4.17L5.96 4.03L5.59 4.97ZM11.19 3.12L8.72 3.46L8.79 4.03L9.93 4.24L9.93 9.66L8.69 10.08L8.69 10.50L12.10 10.50L12.24 9.83L11.19 9.63ZM9.46 1.08C9.67 1.47 10.01 1.81 10.40 2.02C10.81 1.78 11.14 1.46 11.38 1.05C11.17 0.64 10.85 0.32 10.44 0.11C10.02 0.35 9.70 0.67 9.46 1.08ZM20.10 5.67C20.06 3.88 19.32 3.09 17.98 3.09C17.21 3.09 16.18 3.50 15.55 4.27L15.55 3.12L13.08 3.46L13.15 4.07L14.31 4.30L14.31 9.66L13.09 10.08L13.09 10.50L16.48 10.50L16.62 9.83L15.55 9.63L15.55 4.96C15.92 4.52 16.76 4.24 17.50 4.24C18.40 4.24 18.84 4.55 18.84 5.95L18.84 9.66L17.77 10.08L17.77 10.50L21.08 10.50L21.22 9.87L20.10 9.63ZM27.22 10.50L29.27 10.50L29.41 9.86L28.46 9.62L28.46 0L25.98 0.34L26.05 0.95L27.22 1.18L27.22 3.65C26.70 3.33 26.12 3.18 25.56 3.18C23.76 3.18 21.99 4.69 21.99 7.10C21.99 9.23 23.48 10.61 25.03 10.61C25.91 10.61 26.59 10.28 27.22 9.70ZM25.30 9.69C23.94 9.69 23.39 8.37 23.39 6.80C23.39 5.12 24.49 3.96 25.66 3.96C26.18 3.96 26.73 4.19 27.22 4.69L27.22 8.85C26.64 9.35 25.90 9.69 25.30 9.69ZM36.83 6.75C36.83 5.00 36.33 3.11 33.84 3.11C32.23 3.11 30.46 4.35 30.46 6.83C30.46 9.25 32.03 10.63 33.88 10.63C34.82 10.63 35.81 10.28 36.72 9.56L36.41 9.03C35.70 9.49 35.01 9.72 34.36 9.72C32.94 9.72 31.86 8.60 31.86 6.75ZM31.91 5.99C31.95 4.62 32.91 3.86 33.80 3.86C34.64 3.86 35.43 4.52 35.43 5.99ZM43.53 3.32C43.23 3.19 42.92 3.12 42.60 3.12C41.78 3.12 41.06 3.60 40.43 4.27L40.43 3.12L37.95 3.46L38.02 4.07L39.19 4.30L39.19 9.66L37.97 10.08L37.97 10.50L41.58 10.50L41.72 9.83L40.43 9.63L40.43 4.96C40.81 4.52 41.54 4.24 42.14 4.24C42.21 4.24 42.35 4.24 42.42 4.26L42.80 5.32L43.53 5.19Z"></path></g><!----><g data-v-423bf9ae="" id="8fd2720c-00fc-46f6-8ae6-95af3b2453af" transform="matrix(2.8125,0,0,2.8125,0,0)" stroke="none" fill="#1BBE4A"><path d="M16 32c8.837 0 16-7.163 16-16S24.837 0 16 0 0 7.163 0 16s7.163 16 16 16zM14.817 6.421h2v8.886h8.887v2H14.817V6.421zm-5.959.437h2v14.283h14.283v2H8.858V6.858z"></path></g><!----><g data-v-423bf9ae="" id="046ec0c5-35af-4cc7-932b-cf97ee63ba3b" fill="#0D3721" transform="matrix(1.05041653795482,0,0,1.05041653795482,109.60084279406486,56.97480138919927)"><path d="M0.39 3.64L0.38 3.08L7.56 3.08L7.56 3.08Q7.57 4.14 7.63 5.28L7.63 5.28L7.08 5.30L7.08 5.30Q7.07 4.66 7.01 4.25L7.01 4.25L7.01 4.25Q6.97 3.89 6.92 3.80L6.92 3.80L6.92 3.80Q6.86 3.71 6.75 3.69L6.75 3.69L6.75 3.69Q6.65 3.68 6.06 3.68L6.06 3.68L3.68 3.68L3.68 3.68Q3.14 3.68 2.99 3.77L2.99 3.77L2.99 3.77Q2.87 3.86 2.87 4.33L2.87 4.33L2.87 6.28L2.87 6.28Q2.87 6.69 2.93 6.76L2.93 6.76L2.93 6.76Q2.99 6.84 3.33 6.84L3.33 6.84L5.45 6.84L5.45 6.84Q5.81 6.84 5.89 6.74L5.89 6.74L5.89 6.74Q5.97 6.64 5.97 6.17L5.97 6.17L5.97 5.63L6.49 5.63L6.49 8.97L5.97 8.97L5.97 8.26L5.97 8.26Q5.97 7.68 5.89 7.57L5.89 7.57L5.89 7.57Q5.81 7.46 5.48 7.46L5.48 7.46L3.38 7.46L3.38 7.46Q3.04 7.46 2.96 7.54L2.96 7.54L2.96 7.54Q2.87 7.63 2.87 7.89L2.87 7.89L2.87 11.20L2.87 11.20Q2.87 11.60 2.94 11.73L2.94 11.73L2.94 11.73Q3.02 11.87 3.29 11.87L3.29 11.87L4.22 11.87L4.22 12.41L0.63 12.41L0.63 11.87L1.04 11.87L1.04 11.87Q1.54 11.87 1.64 11.79L1.64 11.79L1.64 11.79Q1.74 11.70 1.74 11.33L1.74 11.33L1.74 4.24L1.74 4.24Q1.74 3.79 1.57 3.71L1.57 3.71L1.57 3.71Q1.43 3.64 0.39 3.64L0.39 3.64ZM16.26 3.64L15.67 3.64L15.69 3.08L19.20 3.08L19.20 3.64L18.97 3.64L18.97 3.64Q18.42 3.64 18.25 3.73L18.25 3.73L18.25 3.73Q18.12 3.81 18.12 4.28L18.12 4.28L18.12 11.22L18.12 11.22Q18.12 11.68 18.22 11.77L18.22 11.77L18.22 11.77Q18.33 11.87 18.87 11.87L18.87 11.87L19.41 11.87L19.43 12.41L15.85 12.41L15.83 11.87L16.19 11.87L16.19 11.87Q16.75 11.87 16.87 11.77L16.87 11.77L16.87 11.77Q16.98 11.67 16.98 11.25L16.98 11.25L16.98 4.14L16.98 4.14Q16.98 3.77 16.88 3.71L16.88 3.71L16.88 3.71Q16.77 3.64 16.26 3.64L16.26 3.64ZM27.18 3.64L27.17 3.08L29.34 3.08L35.08 10.48L35.08 4.14L35.08 4.14Q35.08 3.81 34.92 3.72L34.92 3.72L34.92 3.72Q34.77 3.64 34.31 3.64L34.31 3.64L33.82 3.64L33.84 3.08L36.83 3.08L36.83 3.64L36.50 3.64L36.50 3.64Q36.04 3.64 35.89 3.75L35.89 3.75L35.89 3.75Q35.74 3.86 35.74 4.25L35.74 4.25L35.74 12.32L35.74 12.47L35.74 12.47Q35.74 12.52 35.72 12.57L35.72 12.57L35.72 12.57Q35.71 12.61 35.68 12.64L35.68 12.64L35.68 12.64Q35.66 12.65 35.61 12.65L35.61 12.65L35.42 12.65L35.36 12.65L35.33 12.65L35.30 12.64L35.30 12.64Q35.27 12.64 35.26 12.63L35.26 12.63L35.26 12.63Q35.25 12.61 35.25 12.60L35.25 12.60L35.25 12.60Q35.25 12.58 35.23 12.57L35.23 12.57L35.23 12.57Q35.21 12.54 35.18 12.50L35.18 12.50L35.18 12.50Q35.16 12.48 35.14 12.45L35.14 12.45L35.14 12.45Q35.12 12.41 35.11 12.40L35.11 12.40L29.00 4.56L29.07 11.22L29.07 11.22Q29.07 11.67 29.24 11.77L29.24 11.77L29.24 11.77Q29.39 11.87 30.11 11.87L30.11 11.87L30.34 11.87L30.34 12.41L27.41 12.41L27.41 11.87L27.83 11.87L27.83 11.87Q28.21 11.87 28.31 11.76L28.31 11.76L28.31 11.76Q28.41 11.66 28.42 11.25L28.42 11.25L28.42 3.80L28.27 3.64L27.18 3.64ZM44.60 3.64L44.56 3.08L48.34 3.08L48.34 3.08Q49.66 3.08 50.53 3.19L50.53 3.19L50.53 3.19Q51.35 3.29 52.04 3.69L52.04 3.69L52.04 3.69Q52.99 4.27 53.50 5.24L53.50 5.24L53.50 5.24Q53.99 6.21 53.99 7.39L53.99 7.39L53.99 7.39Q53.99 8.05 53.85 8.65L53.85 8.65L53.85 8.65Q53.69 9.29 53.30 9.98L53.30 9.98L53.30 9.98Q52.87 10.73 52.31 11.21L52.31 11.21L52.31 11.21Q51.68 11.76 50.71 12.08L50.71 12.08L50.71 12.08Q49.70 12.41 48.43 12.41L48.43 12.41L44.82 12.41L44.80 11.87L45.18 11.87L45.18 11.87Q45.70 11.87 45.80 11.79L45.80 11.79L45.80 11.79Q45.91 11.70 45.91 11.25L45.91 11.25L45.91 4.14L45.91 4.14Q45.91 3.77 45.81 3.71L45.81 3.71L45.81 3.71Q45.71 3.64 45.19 3.64L45.19 3.64L44.60 3.64ZM47.04 4.39L47.04 11.22L47.04 11.22Q47.04 11.67 47.21 11.77L47.21 11.77L47.21 11.77Q47.37 11.87 48.23 11.87L48.23 11.87L48.23 11.87Q49.29 11.87 50.08 11.61L50.08 11.61L50.08 11.61Q50.93 11.35 51.37 10.99L51.37 10.99L51.37 10.99Q51.86 10.58 52.17 10.05L52.17 10.05L52.17 10.05Q52.47 9.52 52.60 8.96L52.60 8.96L52.60 8.96Q52.73 8.41 52.73 7.82L52.73 7.82L52.73 7.82Q52.73 7.03 52.46 6.34L52.46 6.34L52.46 6.34Q52.19 5.65 51.67 5.05L51.67 5.05L51.67 5.05Q51.13 4.46 50.22 4.09L50.22 4.09L50.22 4.09Q49.30 3.73 48.14 3.73L48.14 3.73L47.62 3.73L47.62 3.73Q47.26 3.73 47.15 3.85L47.15 3.85L47.15 3.85Q47.04 3.99 47.04 4.39L47.04 4.39ZM71.67 3.64L71.67 3.64L71.69 3.08L74.83 3.08L74.83 3.64L74.55 3.64L74.55 3.64Q74.09 3.64 73.99 3.66L73.99 3.66L73.99 3.66Q73.81 3.71 73.81 3.82L73.81 3.82L73.81 3.82Q73.81 3.89 74.07 4.31L74.07 4.31L76.07 7.46L78.52 3.99L78.52 3.99Q78.60 3.83 78.61 3.82L78.61 3.82L78.61 3.82Q78.61 3.64 77.69 3.64L77.69 3.64L77.47 3.64L77.46 3.08L80.00 3.08L80.00 3.64L79.93 3.64L79.93 3.64Q79.58 3.64 79.44 3.72L79.44 3.72L79.44 3.72Q79.28 3.80 79.00 4.22L79.00 4.22L76.27 8.17L76.27 11.22L76.27 11.22Q76.27 11.66 76.38 11.77L76.38 11.77L76.38 11.77Q76.47 11.87 77.09 11.87L77.09 11.87L77.72 11.87L77.70 12.41L73.77 12.41L73.79 11.87L74.35 11.87L74.35 11.87Q74.88 11.87 75.01 11.79L75.01 11.79L75.01 11.79Q75.13 11.70 75.13 11.25L75.13 11.25L75.13 8.06L72.84 4.49L72.84 4.49Q72.42 3.84 72.29 3.73L72.29 3.73L72.29 3.73Q72.18 3.64 71.67 3.64ZM88.12 7.83L88.12 7.83L88.12 7.83Q88.12 6.62 88.53 5.68L88.53 5.68L88.53 5.68Q88.94 4.72 89.63 4.12L89.63 4.12L89.63 4.12Q90.32 3.51 91.18 3.19L91.18 3.19L91.18 3.19Q92.03 2.88 92.98 2.88L92.98 2.88L92.98 2.88Q94.23 2.88 95.29 3.40L95.29 3.40L95.29 3.40Q96.37 3.93 97.08 5.07L97.08 5.07L97.08 5.07Q97.77 6.17 97.78 7.75L97.78 7.75L97.78 7.75Q97.78 8.70 97.47 9.54L97.47 9.54L97.47 9.54Q97.17 10.38 96.56 11.10L96.56 11.10L96.56 11.10Q95.96 11.81 95.02 12.22L95.02 12.22L95.02 12.22Q94.06 12.63 92.87 12.64L92.87 12.64L92.87 12.64Q91.73 12.64 90.79 12.23L90.79 12.23L90.79 12.23Q89.86 11.83 89.30 11.14L89.30 11.14L89.30 11.14Q88.72 10.45 88.43 9.60L88.43 9.60L88.43 9.60Q88.12 8.72 88.12 7.83ZM89.38 7.38L89.38 7.38L89.38 7.38Q89.38 8.52 89.81 9.60L89.81 9.60L89.81 9.60Q90.21 10.64 91.14 11.33L91.14 11.33L91.14 11.33Q92.05 12.03 93.24 12.04L93.24 12.04L93.24 12.04Q94.62 12.04 95.55 11.01L95.55 11.01L95.55 11.01Q96.50 9.97 96.50 8.10L96.50 8.10L96.50 8.10Q96.50 5.99 95.34 4.72L95.34 4.72L95.34 4.72Q94.19 3.46 92.68 3.45L92.68 3.45L92.68 3.45Q92.16 3.45 91.62 3.65L91.62 3.65L91.62 3.65Q91.08 3.85 90.57 4.25L90.57 4.25L90.57 4.25Q90.02 4.68 89.70 5.48L89.70 5.48L89.70 5.48Q89.38 6.27 89.38 7.38ZM106.28 3.64L105.90 3.64L105.90 3.08L109.26 3.08L109.27 3.64L108.74 3.64L108.74 3.64Q108.31 3.64 108.15 3.73L108.15 3.73L108.15 3.73Q107.98 3.83 107.98 4.16L107.98 4.16L107.98 9.33L107.98 9.33Q107.98 9.63 108.01 9.78L108.01 9.78L108.01 9.78Q108.06 10.01 108.22 10.41L108.22 10.41L108.22 10.41Q108.39 10.80 108.68 11.09L108.68 11.09L108.68 11.09Q108.99 11.40 109.55 11.63L109.55 11.63L109.55 11.63Q110.13 11.85 110.91 11.85L110.91 11.85L110.91 11.85Q111.76 11.85 112.31 11.67L112.31 11.67L112.31 11.67Q112.87 11.48 113.18 11.22L113.18 11.22L113.18 11.22Q113.48 10.96 113.63 10.49L113.63 10.49L113.63 10.49Q113.80 9.95 113.80 9.66L113.80 9.66L113.80 9.66Q113.83 9.18 113.84 8.67L113.84 8.67L113.84 4.14L113.84 4.14Q113.84 3.81 113.70 3.72L113.70 3.72L113.70 3.72Q113.54 3.64 113.07 3.64L113.07 3.64L112.57 3.64L112.60 3.08L115.23 3.08L115.23 3.64L115.04 3.64L115.04 3.64Q114.72 3.64 114.61 3.75L114.61 3.75L114.61 3.75Q114.50 3.86 114.50 4.25L114.50 4.25L114.50 9.22L114.50 9.22Q114.50 12.67 110.91 12.67L110.91 12.67L110.91 12.67Q108.74 12.67 107.79 11.76L107.79 11.76L107.79 11.76Q106.85 10.86 106.85 9.41L106.85 9.41L106.85 4.14L106.85 4.14Q106.85 3.81 106.75 3.72L106.75 3.72L106.75 3.72Q106.64 3.64 106.28 3.64L106.28 3.64ZM123.31 3.64L122.92 3.64L122.93 3.08L126.15 3.08L126.15 3.08Q127.29 3.08 127.89 3.21L127.89 3.21L127.89 3.21Q128.53 3.37 128.99 3.75L128.99 3.75L128.99 3.75Q130.00 4.57 130.00 5.71L130.00 5.71L130.00 5.71Q130.00 6.43 129.53 7.04L129.53 7.04L129.53 7.04Q129.04 7.66 128.00 7.92L128.00 7.92L130.69 11.49L130.69 11.49Q131.00 11.87 131.29 11.87L131.29 11.87L131.89 11.87L131.92 12.41L129.89 12.41L126.90 8.10L126.72 8.10L126.72 8.10Q126.68 8.10 126.63 8.11L126.63 8.11L126.63 8.11Q126.57 8.11 126.56 8.11L126.56 8.11L126.56 8.11Q125.68 8.11 125.28 8.03L125.28 8.03L125.28 11.46L125.28 11.46Q125.28 11.76 125.43 11.81L125.43 11.81L125.43 11.81Q125.55 11.87 126.25 11.87L126.25 11.87L126.96 11.87L126.94 12.41L123.21 12.41L123.21 11.87L123.53 11.87L123.53 11.87Q124.00 11.87 124.07 11.81L124.07 11.81L124.07 11.81Q124.15 11.74 124.15 11.46L124.15 11.46L124.15 4.14L124.15 4.14Q124.15 3.82 123.96 3.73L123.96 3.73L123.96 3.73Q123.73 3.64 123.31 3.64L123.31 3.64ZM125.28 4.28L125.28 7.57L125.28 7.57Q125.47 7.70 126.18 7.71L126.18 7.71L126.18 7.71Q127.45 7.71 128.03 7.27L128.03 7.27L128.03 7.27Q128.62 6.84 128.62 5.92L128.62 5.92L128.62 5.92Q128.62 4.92 127.85 4.27L127.85 4.27L127.85 4.27Q127.09 3.64 125.71 3.64L125.71 3.64L125.71 3.64Q125.45 3.64 125.37 3.75L125.37 3.75L125.37 3.75Q125.29 3.84 125.28 4.28L125.28 4.28ZM147.80 15.35L147.80 15.35L147.80 15.35Q147.80 15.07 148.12 14.78L148.12 14.78L148.12 14.78Q148.44 14.49 148.67 14.49L148.67 14.49L148.67 14.49Q148.88 14.49 149.16 14.88L149.16 14.88L149.16 14.88Q149.43 15.25 149.64 15.26L149.64 15.26L149.64 15.26Q150.55 15.26 150.55 12.75L150.55 12.75L150.55 4.14L150.55 4.14Q150.55 3.81 150.45 3.72L150.45 3.72L150.45 3.72Q150.35 3.64 149.92 3.64L149.92 3.64L149.40 3.64L149.40 3.08L152.76 3.08L152.73 3.64L152.28 3.64L152.28 3.64Q151.89 3.64 151.79 3.73L151.79 3.73L151.79 3.73Q151.68 3.84 151.68 4.28L151.68 4.28L151.68 12.44L151.68 12.44Q151.68 13.80 151.31 14.39L151.31 14.39L151.31 14.39Q151.14 14.67 150.66 15.16L150.66 15.16L150.66 15.16Q150.19 15.62 149.83 15.80L149.83 15.80L149.83 15.80Q149.40 16.03 148.89 16.02L148.89 16.02L148.89 16.02Q148.50 16.02 148.14 15.80L148.14 15.80L148.14 15.80Q147.80 15.59 147.80 15.35ZM160.88 7.83L160.88 7.83L160.88 7.83Q160.88 6.62 161.28 5.68L161.28 5.68L161.28 5.68Q161.70 4.72 162.39 4.12L162.39 4.12L162.39 4.12Q163.08 3.51 163.94 3.19L163.94 3.19L163.94 3.19Q164.78 2.88 165.73 2.88L165.73 2.88L165.73 2.88Q166.99 2.88 168.04 3.40L168.04 3.40L168.04 3.40Q169.12 3.93 169.83 5.07L169.83 5.07L169.83 5.07Q170.53 6.17 170.54 7.75L170.54 7.75L170.54 7.75Q170.54 8.70 170.23 9.54L170.23 9.54L170.23 9.54Q169.92 10.38 169.32 11.10L169.32 11.10L169.32 11.10Q168.71 11.81 167.77 12.22L167.77 12.22L167.77 12.22Q166.81 12.63 165.62 12.64L165.62 12.64L165.62 12.64Q164.49 12.64 163.55 12.23L163.55 12.23L163.55 12.23Q162.61 11.83 162.05 11.14L162.05 11.14L162.05 11.14Q161.48 10.45 161.18 9.60L161.18 9.60L161.18 9.60Q160.88 8.72 160.88 7.83ZM162.13 7.38L162.13 7.38L162.13 7.38Q162.13 8.52 162.57 9.60L162.57 9.60L162.57 9.60Q162.97 10.64 163.90 11.33L163.90 11.33L163.90 11.33Q164.81 12.03 166.00 12.04L166.00 12.04L166.00 12.04Q167.37 12.04 168.31 11.01L168.31 11.01L168.31 11.01Q169.26 9.97 169.26 8.10L169.26 8.10L169.26 8.10Q169.26 5.99 168.10 4.72L168.10 4.72L168.10 4.72Q166.95 3.46 165.44 3.45L165.44 3.45L165.44 3.45Q164.92 3.45 164.37 3.65L164.37 3.65L164.37 3.65Q163.83 3.85 163.32 4.25L163.32 4.25L163.32 4.25Q162.78 4.68 162.46 5.48L162.46 5.48L162.46 5.48Q162.13 6.27 162.13 7.38ZM179.05 3.64L178.65 3.64L178.68 3.08L181.77 3.08L181.77 3.08Q183.52 3.08 184.30 3.75L184.30 3.75L184.30 3.75Q185.07 4.42 185.06 5.37L185.06 5.37L185.06 5.37Q185.06 6.08 184.53 6.60L184.53 6.60L184.53 6.60Q183.97 7.14 183.27 7.35L183.27 7.35L183.27 7.35Q184.35 7.57 184.88 8.34L184.88 8.34L184.88 8.34Q185.40 9.08 185.40 10.01L185.40 10.01L185.40 10.01Q185.40 11.01 184.77 11.59L184.77 11.59L184.77 11.59Q184.17 12.13 183.22 12.28L183.22 12.28L183.22 12.28Q182.29 12.41 180.75 12.41L180.75 12.41L178.77 12.41L178.77 11.87L179.18 11.87L179.18 11.87Q179.55 11.87 179.66 11.80L179.66 11.80L179.66 11.80Q179.77 11.73 179.77 11.46L179.77 11.46L179.77 4.14L179.77 4.14Q179.77 3.81 179.62 3.72L179.62 3.72L179.62 3.72Q179.48 3.64 179.05 3.64L179.05 3.64ZM180.88 7.59L180.88 7.59L180.91 11.35L180.91 11.35Q180.91 11.63 181.07 11.71L181.07 11.71L181.07 11.71Q181.24 11.80 181.82 11.80L181.82 11.80L181.82 11.80Q184.07 11.80 184.07 9.91L184.07 9.91L184.07 9.91Q184.07 9.22 183.75 8.73L183.75 8.73L183.75 8.73Q183.44 8.24 182.91 8.02L182.91 8.02L182.91 8.02Q182.32 7.75 181.88 7.68L181.88 7.68L181.88 7.68Q181.41 7.59 180.88 7.59ZM180.91 4.01L180.91 7.19L182.28 7.19L182.28 7.19Q182.94 7.19 183.35 6.66L183.35 6.66L183.35 6.66Q183.76 6.15 183.76 5.54L183.76 5.54L183.76 5.54Q183.76 4.85 183.18 4.27L183.18 4.27L183.18 4.27Q182.60 3.69 181.32 3.69L181.32 3.69L181.32 3.69Q180.91 3.69 180.91 4.01L180.91 4.01Z"></path></g></svg>